<svg viewBox="0 0 33.867 33.867" xmlns="http://www.w3.org/2000/svg"><defs><linearGradient id="a"><stop offset="0" stop-color="#ffffff" stop-opacity="1" class="stop-color-f6f600"></stop><stop offset="1" stop-color="#ffffff" stop-opacity="1" class="stop-color-f69134"></stop></linearGradient></defs><path d="M16.933 1.058a15.875 15.875 0 0 1 15.875 15.875 15.875 15.875 0 0 1-15.875 15.875A15.875 15.875 0 0 1 1.058 16.933 15.875 15.875 0 0 1 16.933 1.058Z" fill="#ffffff" fill-opacity="1" stroke-width="7.937" stroke-linecap="square" stroke-linejoin="round" paint-order="fill markers stroke" class="fill-59d96b"></path><path d="M14.27 9.291c-3.76.15-6.381.98-6.381.98a1.984 1.984 0 0 0-1.32 2.477 1.984 1.984 0 0 0 2.474 1.322s9.097-2.634 16.398 1.723a1.984 1.984 0 0 0 2.721-.688 1.984 1.984 0 0 0-.687-2.72C22.923 9.669 18.028 9.14 14.27 9.29zM14.344 15.682c-3.125.125-5.303.816-5.303.816a1.65 1.65 0 0 0-1.098 2.059A1.65 1.65 0 0 0 10 19.654s7.563-2.188 13.633 1.434a1.65 1.65 0 0 0 2.262-.572 1.65 1.65 0 0 0-.57-2.262c-3.784-2.258-7.857-2.698-10.981-2.572zM14.643 21.387c-2.151.086-3.65.56-3.65.56a1.136 1.136 0 0 0-.757 1.418 1.136 1.136 0 0 0 1.416.756s5.207-1.507 9.385.986a1.136 1.136 0 0 0 1.557-.392 1.136 1.136 0 0 0-.393-1.559c-2.605-1.554-5.407-1.856-7.558-1.77z" style="line-height:normal;font-variant-ligatures:normal;font-variant-position:normal;font-variant-caps:normal;font-variant-numeric:normal;font-variant-alternates:normal;font-variant-east-asian:normal;font-feature-settings:normal;font-variation-settings:normal;text-indent:0;text-align:start;text-decoration-line:none;text-decoration-style:solid;text-decoration-color:#000;text-transform:none;text-orientation:mixed;white-space:normal;shape-padding:0;shape-margin:0;inline-size:0;isolation:auto;mix-blend-mode:normal;solid-color:#000;solid-opacity:1" color="#000000" font-style="normal" font-variant="normal" font-weight="400" font-stretch="normal" font-size="medium" font-family="sans-serif" text-decoration="none" letter-spacing="normal" word-spacing="normal" writing-mode="lr-tb" direction="ltr" dominant-baseline="auto" baseline-shift="baseline" text-anchor="start" clip-rule="nonzero" display="inline" overflow="visible" visibility="visible" color-interpolation="sRGB" color-interpolation-filters="linearRGB" vector-effect="none" fill="#000000" fill-opacity="1" fill-rule="nonzero" stroke="none" stroke-linecap="round" stroke-linejoin="round" stroke-miterlimit="4" stroke-dasharray="none" stroke-dashoffset="0" stroke-opacity="1" paint-order="fill markers stroke" color-rendering="auto" image-rendering="auto" shape-rendering="auto" text-rendering="auto" enable-background="accumulate" stop-color="#8f7474" stop-opacity="1" opacity="1" class="fill-59586e stop-color-000000"></path></svg>